<?xml version="1.0" encoding="UTF-8" standalone="no"?>
<!-- Created with Inkscape (http://www.inkscape.org/) -->

<svg
   width="235mm"
   height="297mm"
   viewBox="0 0 235 297"
   version="1.1"
   id="svg1"
   inkscape:version="1.4.2 (ebf0e940d0, 2025-05-08)"
   sodipodi:docname="QuanCha.svg"
   xml:space="preserve"
   xmlns:inkscape="http://www.inkscape.org/namespaces/inkscape"
   xmlns:sodipodi="http://sodipodi.sourceforge.net/DTD/sodipodi-0.dtd"
   xmlns="http://www.w3.org/2000/svg"
   xmlns:svg="http://www.w3.org/2000/svg"><sodipodi:namedview
     id="namedview1"
     pagecolor="#505050"
     bordercolor="#ffffff"
     borderopacity="1"
     inkscape:showpageshadow="0"
     inkscape:pageopacity="0"
     inkscape:pagecheckerboard="1"
     inkscape:deskcolor="#505050"
     inkscape:document-units="mm"
     showguides="false"
     inkscape:zoom="0.5"
     inkscape:cx="609"
     inkscape:cy="762"
     inkscape:window-width="2226"
     inkscape:window-height="1224"
     inkscape:window-x="0"
     inkscape:window-y="0"
     inkscape:window-maximized="1"
     inkscape:current-layer="layer1" /><defs
     id="defs1"><inkscape:path-effect
       effect="powerclip"
       message=""
       id="path-effect5"
       is_visible="true"
       lpeversion="1"
       inverse="true"
       flatten="false"
       hide_clip="false" /><inkscape:path-effect
       effect="powerclip"
       message=""
       id="path-effect4"
       is_visible="true"
       lpeversion="1"
       inverse="true"
       flatten="false"
       hide_clip="false" /><rect
       x="123.56503"
       y="202.09748"
       width="513.4585"
       height="239.61386"
       id="rect1" /><clipPath
       clipPathUnits="userSpaceOnUse"
       id="clipPath1"><path
         id="path1"
         style="fill:#5768b8;fill-opacity:1;stroke:#000000;stroke-width:2.38367;stroke-dasharray:none;stroke-opacity:0;paint-order:stroke fill markers"
         d="m 39.680782,55.964542 c -3.82688,0 -6.969363,2.825298 -7.46466,6.512264 l -0.06821,5.266349 v 37.658165 l 0.324009,5.22553 c 0.937125,3.09303 3.801864,5.33197 7.208864,5.33197 H 163.98327 c 4.17323,0 7.53288,-3.35964 7.53288,-7.53287 V 63.497415 c 0,-4.173231 -3.35965,-7.532873 -7.53288,-7.532873 z"
         sodipodi:nodetypes="sccccssssss" /></clipPath><clipPath
       clipPathUnits="userSpaceOnUse"
       id="clipPath4"><rect
         style="display:none;fill:#ebebeb;fill-opacity:1;stroke:#000000;stroke-width:1.20331;stroke-dasharray:none;stroke-opacity:0;paint-order:stroke fill markers"
         id="rect4"
         width="58.938061"
         height="112.09238"
         x="157.09824"
         y="112.66627"
         ry="6.6033807"
         d="m 163.70162,112.66627 h 45.7313 c 3.65827,0 6.60338,2.94511 6.60338,6.60338 v 98.88561 c 0,3.65828 -2.94511,6.60338 -6.60338,6.60338 h -45.7313 c -3.65828,0 -6.60338,-2.9451 -6.60338,-6.60338 v -98.88561 c 0,-3.65827 2.9451,-6.60338 6.60338,-6.60338 z" /><path
         id="lpe_path-effect4"
         style="fill:#ebebeb;fill-opacity:1;stroke:#000000;stroke-width:1.20331;stroke-dasharray:none;stroke-opacity:0;paint-order:stroke fill markers"
         class="powerclip"
         d="m 142.83955,93.251762 h 87.7277 V 243.48823 h -87.7277 z m 20.86207,19.414508 c -3.65828,0 -6.60338,2.94511 -6.60338,6.60338 v 98.88561 c 0,3.65828 2.9451,6.60338 6.60338,6.60338 h 45.7313 c 3.65827,0 6.60338,-2.9451 6.60338,-6.60338 v -98.88561 c 0,-3.65827 -2.94511,-6.60338 -6.60338,-6.60338 z" /></clipPath><clipPath
       clipPathUnits="userSpaceOnUse"
       id="clipPath5"><rect
         style="display:none;fill:#d4d4d4;fill-opacity:1;stroke:#000000;stroke-width:1.27115;stroke-dasharray:none;stroke-opacity:0;paint-order:stroke fill markers"
         id="rect5"
         width="67.850471"
         height="108.65695"
         x="148.72246"
         y="110.09557"
         ry="6.4009986"
         d="m 155.12346,110.09557 h 55.04847 c 3.54615,0 6.401,2.85485 6.401,6.401 v 95.85496 c 0,3.54615 -2.85485,6.401 -6.401,6.401 h -55.04847 c -3.54616,0 -6.401,-2.85485 -6.401,-6.401 v -95.85496 c 0,-3.54615 2.85484,-6.401 6.401,-6.401 z" /><path
         id="lpe_path-effect5"
         style="fill:#d4d4d4;fill-opacity:1;stroke:#000000;stroke-width:1.27115;stroke-dasharray:none;stroke-opacity:0;paint-order:stroke fill markers"
         class="powerclip"
         d="m 142.59438,97.239708 h 87.72771 V 247.47617 h -87.72771 z m 12.52908,12.855862 c -3.54616,0 -6.401,2.85485 -6.401,6.401 v 95.85496 c 0,3.54615 2.85484,6.401 6.401,6.401 h 55.04847 c 3.54615,0 6.401,-2.85485 6.401,-6.401 v -95.85496 c 0,-3.54615 -2.85485,-6.401 -6.401,-6.401 z" /></clipPath></defs><rect
     style="fill:#d4d4d4;fill-opacity:1;stroke:#000000;stroke-width:2.69456;stroke-dasharray:none;stroke-opacity:0;paint-order:stroke fill markers"
     id="rect2-1"
     width="155.15813"
     height="213.50919"
     x="23.253979"
     y="49.255543"
     ry="12.577861" /><g
     inkscape:label="Layer 1"
     inkscape:groupmode="layer"
     id="layer1"><path
       style="fill:#d4d4d4;fill-opacity:1;stroke:#000000;stroke-width:1.52211;stroke-dasharray:none;stroke-opacity:0;paint-order:stroke fill markers"
       id="rect2-35-3"
       width="76.205597"
       height="138.71436"
       x="148.35544"
       y="103.00076"
       ry="8.1716852"
       clip-path="url(#clipPath5)"
       inkscape:path-effect="#path-effect5"
       sodipodi:type="rect"
       d="m 156.52712,103.00076 h 59.86223 c 4.52711,0 8.17169,3.64457 8.17169,8.17169 v 122.37098 c 0,4.52712 -3.64458,8.17169 -8.17169,8.17169 h -59.86223 c -4.52711,0 -8.17168,-3.64457 -8.17168,-8.17169 V 111.17245 c 0,-4.52712 3.64457,-8.17169 8.17168,-8.17169 z"
       transform="translate(-2.4119725,-9.3905297)" /><path
       style="fill:#ebebeb;fill-opacity:1;stroke:#000000;stroke-width:1.52211;stroke-dasharray:none;stroke-opacity:0;paint-order:stroke fill markers"
       id="rect2-35"
       width="76.205597"
       height="138.71436"
       x="148.6006"
       y="99.012817"
       ry="8.1716852"
       clip-path="url(#clipPath4)"
       inkscape:path-effect="#path-effect4"
       sodipodi:type="rect"
       d="m 156.77229,99.012817 h 59.86222 c 4.52712,0 8.17169,3.644573 8.17169,8.171683 v 122.37099 c 0,4.52711 -3.64457,8.17168 -8.17169,8.17168 h -59.86222 c -4.52712,0 -8.17169,-3.64457 -8.17169,-8.17168 V 107.1845 c 0,-4.52711 3.64457,-8.171683 8.17169,-8.171683 z"
       transform="translate(-2.6458333,-9.5249997)" /><rect
       style="fill:#d4d4d4;fill-opacity:1;stroke:#000000;stroke-width:1.40936;stroke-dasharray:none;stroke-opacity:0;paint-order:stroke fill markers"
       id="rect2-3"
       width="147.95827"
       height="61.253075"
       x="26.262686"
       y="50.706696"
       ry="4.9029608"
       rx="0" /><rect
       style="fill:#ebebeb;fill-opacity:1;stroke:#000000;stroke-width:2.65423;stroke-dasharray:none;stroke-opacity:0;paint-order:stroke fill markers"
       id="rect2"
       width="155.14743"
       height="207.17923"
       x="23.246302"
       y="47.276028"
       ry="12.204962" /><rect
       style="fill:#d4d4d4;fill-opacity:1;stroke:none;stroke-width:2.42141;stroke-dasharray:none;stroke-opacity:1;paint-order:stroke fill markers"
       id="rect3"
       width="139.57353"
       height="61.817463"
       x="32.065136"
       y="53.175526"
       ry="7.7618337" /><path
       id="rect3-1-2"
       style="fill:#5768b8;fill-opacity:1;stroke:#000000;stroke-width:2.38367;stroke-dasharray:none;stroke-opacity:0;paint-order:stroke fill markers"
       d="m 39.678625,55.953009 c -3.826881,0 -6.969362,2.825297 -7.464661,6.512264 l -0.06821,5.266347 v 37.65816 l 0.324011,5.22553 c 0.937124,3.09303 3.801862,5.33197 7.208862,5.33197 H 163.98112 c 4.17323,0 7.53288,-3.35964 7.53288,-7.53287 V 63.485882 c 0,-4.173231 -3.35965,-7.532873 -7.53288,-7.532873 z"
       sodipodi:nodetypes="sccccssssss" /><text
       xml:space="preserve"
       style="font-size:11.2889px;line-height:1.7;font-family:'BigBlueTerm437 Nerd Font';-inkscape-font-specification:'BigBlueTerm437 Nerd Font';text-align:start;writing-mode:lr-tb;direction:ltr;text-anchor:start;opacity:1;fill:#7582bc;fill-opacity:1;stroke:none;stroke-width:0.633412;stroke-dasharray:none;stroke-opacity:1;paint-order:stroke fill markers"
       x="33.337498"
       y="49.477081"
       id="text8"><tspan
         sodipodi:role="line"
         style="stroke-width:0.633412"
         x="33.337498"
         y="49.477081"
         id="tspan9" /></text><text
       xml:space="preserve"
       style="font-size:11.2889px;line-height:1.7;font-family:'BigBlueTerm437 Nerd Font';-inkscape-font-specification:'BigBlueTerm437 Nerd Font';text-align:start;writing-mode:lr-tb;direction:ltr;text-anchor:start;opacity:1;fill:#7582bc;fill-opacity:1;stroke:none;stroke-width:0.633412;stroke-dasharray:none;stroke-opacity:1;paint-order:stroke fill markers"
       x="38.232292"
       y="68.923958"
       id="text10"><tspan
         sodipodi:role="line"
         style="stroke-width:0.633412"
         x="38.232292"
         y="68.923958"
         id="tspan11" /></text></g></svg>
