<?xml version="1.0" encoding="UTF-8" standalone="no"?>
<!-- Created with Inkscape (http://www.inkscape.org/) -->

<svg
   width="235mm"
   height="297mm"
   viewBox="0 0 235 297"
   version="1.1"
   id="svg1"
   inkscape:version="1.4.2 (ebf0e940d0, 2025-05-08)"
   sodipodi:docname="QuanCha.svg"
   xmlns:inkscape="http://www.inkscape.org/namespaces/inkscape"
   xmlns:sodipodi="http://sodipodi.sourceforge.net/DTD/sodipodi-0.dtd"
   xmlns="http://www.w3.org/2000/svg"
   xmlns:svg="http://www.w3.org/2000/svg">
  <sodipodi:namedview
     id="namedview1"
     pagecolor="#505050"
     bordercolor="#ffffff"
     borderopacity="1"
     inkscape:showpageshadow="0"
     inkscape:pageopacity="0"
     inkscape:pagecheckerboard="1"
     inkscape:deskcolor="#505050"
     inkscape:document-units="mm"
     showguides="false"
     inkscape:zoom="1.4142136"
     inkscape:cx="187.73685"
     inkscape:cy="235.46656"
     inkscape:window-width="2226"
     inkscape:window-height="1224"
     inkscape:window-x="0"
     inkscape:window-y="0"
     inkscape:window-maximized="1"
     inkscape:current-layer="layer1" />
  <defs
     id="defs1">
    <rect
       x="123.56503"
       y="202.09748"
       width="513.4585"
       height="239.61386"
       id="rect1" />
  </defs>
  <rect
     style="fill:#d4d4d4;fill-opacity:1;stroke:#000000;stroke-width:2.69456;stroke-dasharray:none;stroke-opacity:0;paint-order:stroke fill markers"
     id="rect2-1"
     width="155.15813"
     height="213.50919"
     x="23.253979"
     y="49.255543"
     ry="12.577861" />
  <g
     inkscape:label="Layer 1"
     inkscape:groupmode="layer"
     id="layer1">
    <path
       id="rect2-1-6"
       style="fill:#d4d4d4;fill-opacity:1;stroke:#d4d4d4;stroke-width:1.58826;stroke-dasharray:none;stroke-opacity:1;paint-order:stroke fill markers"
       d="m 204.62274,91.720939 c -0.46984,-0.0017 -0.94712,0.04843 -1.42649,0.153549 L 131.0728,107.69068 c -3.83502,0.84099 -6.30429,4.89966 -5.53657,9.10069 l 20.75197,113.55647 c 0.76772,4.20102 4.4733,6.90595 8.30831,6.06496 l 72.12345,-15.8162 c 3.83502,-0.84099 6.30429,-4.89967 5.53657,-9.10068 L 211.50456,97.939441 c -0.67175,-3.675892 -3.59292,-6.206717 -6.88182,-6.218502 z m -9.90421,18.294151 c 2.18155,-0.042 4.09049,1.62028 4.49444,4.08888 l 12.47932,76.26009 c 0.46165,2.82126 -1.22277,5.59641 -3.77624,6.22177 l -44.0528,10.78865 c -2.55347,0.62536 -4.98079,-1.14229 -5.44246,-3.96354 L 145.94197,127.1503 c -0.46165,-2.82126 1.22227,-5.59587 3.77575,-6.22122 l 44.0528,-10.78866 c 0.31918,-0.0782 0.63637,-0.11934 0.94801,-0.12533 z" />
    <rect
       style="fill:#d4d4d4;fill-opacity:1;stroke:#000000;stroke-width:1.40936;stroke-dasharray:none;stroke-opacity:0;paint-order:stroke fill markers"
       id="rect2-3"
       width="147.95827"
       height="61.253075"
       x="26.262686"
       y="50.706696"
       ry="4.9029608"
       rx="0" />
    <path
       id="rect2-8"
       style="fill:#ebebeb;fill-opacity:1;stroke:#000000;stroke-width:1.56448;stroke-dasharray:none;stroke-opacity:0;paint-order:stroke fill markers"
       d="m 204.55736,90.489275 c -0.45592,-0.0016 -0.91873,0.04666 -1.3839,0.148665 l -72.52811,15.90518 c -3.72132,0.81606 -6.11759,4.75456 -5.37263,8.83102 l 20.1368,110.18978 c 0.74496,4.07647 4.34082,6.70142 8.06215,5.88536 l 72.52762,-15.90518 c 3.72132,-0.81606 6.11757,-4.75456 5.37261,-8.83102 L 211.23511,96.523306 c -0.65184,-3.566906 -3.48636,-6.022588 -6.67775,-6.034031 z m -3.62765,22.910975 c 2.18155,-0.042 4.09049,1.61973 4.49444,4.08832 l 12.47882,76.26065 c 0.46166,2.82125 -1.22227,5.59586 -3.77575,6.22122 l -44.05328,10.78865 c -2.55348,0.62536 -4.9808,-1.14229 -5.44246,-3.96354 L 152.15266,130.5349 c -0.46166,-2.82125 1.22227,-5.59585 3.77574,-6.22121 l 44.05329,-10.78866 c 0.31918,-0.0782 0.63638,-0.11878 0.94802,-0.12478 z" />
    <rect
       style="fill:#ebebeb;fill-opacity:1;stroke:#000000;stroke-width:2.65423;stroke-dasharray:none;stroke-opacity:0;paint-order:stroke fill markers"
       id="rect2"
       width="155.14743"
       height="207.17923"
       x="23.246302"
       y="47.276028"
       ry="12.204962" />
    <rect
       style="fill:#d4d4d4;fill-opacity:1;stroke:none;stroke-width:2.42141;stroke-dasharray:none;stroke-opacity:1;paint-order:stroke fill markers"
       id="rect3"
       width="139.57353"
       height="61.817463"
       x="32.065136"
       y="53.175526"
       ry="7.7618337" />
    <path
       id="rect3-1"
       style="fill:#5768b8;fill-opacity:1;stroke:#000000;stroke-width:2.38367;stroke-dasharray:none;stroke-opacity:0;paint-order:stroke fill markers"
       d="M 39.680782 55.964543 C 35.853901 55.964543 32.71142 58.78984 32.216121 62.476807 L 32.962846 62.397742 L 32.962846 61.346126 L 34.054769 61.230371 L 34.054769 60.178239 L 37.329504 59.83149 L 37.329504 60.883622 L 38.421427 60.767867 L 38.421427 61.819999 L 39.51335 61.704244 L 39.51335 66.963871 L 38.421427 67.07911 L 38.421427 68.131242 L 37.329504 68.246997 L 37.329504 69.298612 L 34.054769 69.645361 L 34.054769 68.593746 L 32.962846 68.708984 L 32.962846 67.657369 L 32.147909 67.743152 L 32.147909 83.94268 L 32.962846 83.85638 L 32.962846 82.804765 L 34.054769 82.68901 L 34.054769 81.636877 L 37.329504 81.290129 L 37.329504 82.342261 L 38.421427 82.226506 L 38.421427 83.278638 L 39.51335 83.162882 L 39.51335 88.42251 L 38.421427 88.538265 L 38.421427 89.58988 L 37.329504 89.705636 L 37.329504 90.757251 L 34.054769 91.104 L 34.054769 90.052384 L 32.962846 90.16814 L 32.962846 89.116007 L 32.147909 89.202307 L 32.147909 105.40132 L 32.962846 105.31502 L 32.962846 104.2634 L 34.054769 104.14765 L 34.054769 103.09603 L 37.329504 102.74928 L 37.329504 103.8009 L 38.421427 103.68566 L 38.421427 104.73728 L 39.51335 104.62152 L 39.51335 109.88115 L 38.421427 109.9969 L 38.421427 111.04852 L 37.329504 111.16427 L 37.329504 112.21641 L 34.054769 112.56316 L 34.054769 111.51102 L 32.962846 111.62678 L 32.962846 110.57465 L 32.47192 110.62684 C 33.409044 113.71987 36.273782 115.95881 39.680782 115.95881 L 163.98327 115.95881 C 168.1565 115.95881 171.51615 112.59917 171.51615 108.42594 L 171.51615 63.497416 C 171.51615 59.324185 168.1565 55.964543 163.98327 55.964543 L 159.60266 55.964543 L 159.60266 56.352633 L 156.32793 56.699382 L 156.32793 55.964543 L 150.86934 55.964543 L 150.86934 56.225509 L 153.05267 55.994515 L 153.05267 57.04613 L 146.50217 57.740145 L 146.50217 56.688013 L 148.6855 56.457019 L 148.6855 55.964543 L 115.93401 55.964543 L 115.93401 59.924508 L 118.11734 59.693514 L 118.11734 60.745129 L 111.56683 61.438627 L 111.56683 60.387012 L 113.75068 60.155501 L 113.75068 55.964543 L 109.3835 55.964543 L 109.3835 59.565873 L 108.2921 59.681628 L 108.2921 60.733761 L 107.20017 60.848999 L 107.20017 61.901131 L 103.92492 62.24788 L 103.92492 61.195748 L 102.833 61.311503 L 102.833 60.259888 L 101.74159 60.375126 L 101.74159 55.964543 L 100.64967 55.964543 L 100.64967 60.490881 L 99.558264 60.606637 L 99.558264 61.658252 L 98.466341 61.774007 L 98.466341 62.825623 L 95.191089 63.172371 L 95.191089 62.120756 L 94.099683 62.235994 L 94.099683 61.184379 L 93.00776 61.300134 L 93.00776 56.040507 L 93.724512 55.964543 L 39.680782 55.964543 z M 95.191089 55.964543 L 95.191089 61.068624 L 96.283012 60.953385 L 96.283012 62.005001 L 97.374418 61.889246 L 97.374418 60.83763 L 98.466341 60.721875 L 98.466341 55.964543 L 95.191089 55.964543 z M 103.92492 55.964543 L 103.92492 60.144132 L 105.01685 60.028377 L 105.01685 61.080509 L 106.10825 60.964754 L 106.10825 59.912622 L 107.20017 59.797384 L 107.20017 55.964543 L 103.92492 55.964543 z M 106.10825 56.757259 L 106.10825 57.808875 L 105.01685 57.92463 L 105.01685 56.873014 L 106.10825 56.757259 z M 97.374418 57.68175 L 97.374418 58.733883 L 96.283012 58.849121 L 96.283012 57.797506 L 97.374418 57.68175 z M 46.063338 58.906999 L 46.063338 67.321989 L 48.247184 67.090995 L 48.247184 68.142611 L 41.69668 68.836625 L 41.69668 67.784493 L 43.880009 67.553499 L 43.880009 62.293872 L 41.69668 62.524866 L 41.69668 61.47325 L 42.788603 61.357495 L 42.788603 60.305363 L 43.880009 60.190125 L 43.880009 59.137992 L 46.063338 58.906999 z M 36.238098 60.999377 L 35.146175 61.114616 L 35.146175 62.166748 L 34.054769 62.281986 L 34.054769 67.541614 L 35.146175 67.425859 L 35.146175 68.477991 L 36.238098 68.362236 L 36.238098 67.31062 L 37.329504 67.194865 L 37.329504 61.935238 L 36.238098 62.050993 L 36.238098 60.999377 z M 36.238098 64.15474 L 36.238098 65.206873 L 35.146175 65.322111 L 35.146175 64.270496 L 36.238098 64.15474 z M 159.60266 68.344666 L 159.60266 76.759656 L 161.78651 76.528662 L 161.78651 77.580278 L 155.236 78.273775 L 155.236 77.22216 L 157.41933 76.990649 L 157.41933 71.731539 L 155.236 71.962533 L 155.236 70.9104 L 156.32793 70.795162 L 156.32793 69.74303 L 157.41933 69.627791 L 157.41933 68.575659 L 159.60266 68.344666 z M 150.86934 69.269157 L 150.86934 70.321289 L 151.96075 70.205534 L 151.96075 71.257666 L 153.05267 71.141911 L 153.05267 76.401538 L 151.96075 76.516777 L 151.96075 77.568909 L 150.86934 77.684147 L 150.86934 78.736279 L 147.59409 79.083028 L 147.59409 78.031413 L 146.50217 78.146651 L 146.50217 77.095036 L 145.41025 77.210274 L 145.41025 71.951164 L 146.50217 71.835409 L 146.50217 70.783276 L 147.59409 70.668038 L 147.59409 69.615906 L 150.86934 69.269157 z M 149.77742 70.436528 L 148.6855 70.552283 L 148.6855 71.604415 L 147.59409 71.719653 L 147.59409 76.979281 L 148.6855 76.863525 L 148.6855 77.915658 L 149.77742 77.799902 L 149.77742 76.748287 L 150.86934 76.632532 L 150.86934 71.372904 L 149.77742 71.48866 L 149.77742 70.436528 z M 115.93401 72.968156 L 115.93401 74.019771 L 117.02542 73.904533 L 117.02542 74.956148 L 118.11734 74.840393 L 118.11734 80.10002 L 117.02542 80.215776 L 117.02542 81.267391 L 115.93401 81.383146 L 115.93401 82.435278 L 112.65876 82.782027 L 112.65876 81.729895 L 111.56683 81.84565 L 111.56683 80.793518 L 110.47543 80.909273 L 110.47543 75.649646 L 111.56683 75.534408 L 111.56683 74.482275 L 112.65876 74.36652 L 112.65876 73.314905 L 115.93401 72.968156 z M 149.77742 73.592407 L 149.77742 74.644539 L 148.6855 74.759778 L 148.6855 73.708162 L 149.77742 73.592407 z M 107.20017 73.892647 L 107.20017 74.944779 L 108.2921 74.829024 L 108.2921 75.881156 L 109.3835 75.765401 L 109.3835 81.025028 L 108.2921 81.140267 L 108.2921 82.192399 L 107.20017 82.308154 L 107.20017 83.35977 L 103.92492 83.706519 L 103.92492 82.654903 L 102.833 82.770142 L 102.833 81.718526 L 101.74159 81.833765 L 101.74159 76.574654 L 102.833 76.458899 L 102.833 75.406767 L 103.92492 75.291528 L 103.92492 74.239396 L 107.20017 73.892647 z M 114.84209 74.135527 L 113.75068 74.251282 L 113.75068 75.302897 L 112.65876 75.418652 L 112.65876 80.67828 L 113.75068 80.562524 L 113.75068 81.61414 L 114.84209 81.498901 L 114.84209 80.446769 L 115.93401 80.331531 L 115.93401 75.071903 L 114.84209 75.187659 L 114.84209 74.135527 z M 98.466341 74.817655 L 98.466341 83.232646 L 100.64967 83.001652 L 100.64967 84.053267 L 94.099683 84.746765 L 94.099683 83.69515 L 96.283012 83.463639 L 96.283012 78.204529 L 94.099683 78.435522 L 94.099683 77.38339 L 95.191089 77.268152 L 95.191089 76.21602 L 96.283012 76.100264 L 96.283012 75.048649 L 98.466341 74.817655 z M 106.10825 75.060018 L 105.01685 75.175773 L 105.01685 76.227905 L 103.92492 76.343144 L 103.92492 81.602771 L 105.01685 81.487016 L 105.01685 82.539148 L 106.10825 82.423393 L 106.10825 81.371777 L 107.20017 81.256022 L 107.20017 75.996395 L 106.10825 76.11215 L 106.10825 75.060018 z M 114.84209 77.291406 L 114.84209 78.343022 L 113.75068 78.458777 L 113.75068 77.406645 L 114.84209 77.291406 z M 106.10825 78.215898 L 106.10825 79.26803 L 105.01685 79.383268 L 105.01685 78.331653 L 106.10825 78.215898 z M 63.531006 78.516138 L 63.531006 79.56827 L 64.622929 79.452515 L 64.622929 80.504647 L 65.714852 80.388892 L 65.714852 85.648519 L 64.622929 85.763757 L 64.622929 86.815889 L 63.531006 86.931645 L 63.531006 87.98326 L 60.255754 88.330009 L 60.255754 87.278394 L 59.164347 87.393632 L 59.164347 86.342017 L 58.072424 86.457255 L 58.072424 81.198145 L 59.164347 81.082389 L 59.164347 80.030257 L 60.255754 79.915019 L 60.255754 78.862887 L 63.531006 78.516138 z M 54.797172 79.441146 L 54.797172 87.856136 L 56.981018 87.625142 L 56.981018 88.676758 L 50.430514 89.370256 L 50.430514 88.31864 L 52.613843 88.08713 L 52.613843 82.828019 L 50.430514 83.059013 L 50.430514 82.006881 L 51.52192 81.891642 L 51.52192 80.83951 L 52.613843 80.724272 L 52.613843 79.672139 L 54.797172 79.441146 z M 62.4396 79.683508 L 61.347677 79.799264 L 61.347677 80.851396 L 60.255754 80.966634 L 60.255754 86.226261 L 61.347677 86.110506 L 61.347677 87.162638 L 62.4396 87.046883 L 62.4396 85.995268 L 63.531006 85.879513 L 63.531006 80.619885 L 62.4396 80.73564 L 62.4396 79.683508 z M 46.063338 80.365637 L 46.063338 88.780627 L 48.247184 88.549634 L 48.247184 89.601766 L 41.69668 90.295264 L 41.69668 89.243132 L 43.880009 89.012138 L 43.880009 83.752511 L 41.69668 83.983504 L 41.69668 82.931889 L 42.788603 82.816134 L 42.788603 81.764518 L 43.880009 81.648763 L 43.880009 80.596631 L 46.063338 80.365637 z M 36.238098 82.458016 L 35.146175 82.573254 L 35.146175 83.625387 L 34.054769 83.741142 L 34.054769 89.000252 L 35.146175 88.885014 L 35.146175 89.936629 L 36.238098 89.821391 L 36.238098 88.769259 L 37.329504 88.653503 L 37.329504 83.394393 L 36.238098 83.509631 L 36.238098 82.458016 z M 62.4396 82.839388 L 62.4396 83.89152 L 61.347677 84.006759 L 61.347677 82.955143 L 62.4396 82.839388 z M 36.238098 85.613379 L 36.238098 86.665511 L 35.146175 86.781266 L 35.146175 85.729134 L 36.238098 85.613379 z M 159.60266 89.803304 L 159.60266 98.218294 L 161.78651 97.987301 L 161.78651 99.038916 L 155.236 99.732931 L 155.236 98.680798 L 157.41933 98.449805 L 157.41933 93.190177 L 155.236 93.421171 L 155.236 92.369556 L 156.32793 92.2538 L 156.32793 91.201668 L 157.41933 91.08643 L 157.41933 90.034298 L 159.60266 89.803304 z M 115.93401 94.426794 L 115.93401 102.84178 L 118.11734 102.61079 L 118.11734 103.66292 L 111.56683 104.35642 L 111.56683 103.30429 L 113.75068 103.0733 L 113.75068 97.813668 L 111.56683 98.044661 L 111.56683 96.993046 L 112.65876 96.877291 L 112.65876 95.825675 L 113.75068 95.70992 L 113.75068 94.657788 L 115.93401 94.426794 z M 107.20017 95.351286 L 107.20017 96.403418 L 108.2921 96.287663 L 108.2921 97.339795 L 109.3835 97.22404 L 109.3835 102.48367 L 108.2921 102.59942 L 108.2921 103.65104 L 107.20017 103.76679 L 107.20017 104.81841 L 103.92492 105.16516 L 103.92492 104.11354 L 102.833 104.22878 L 102.833 103.17716 L 101.74159 103.29292 L 101.74159 98.033293 L 102.833 97.917537 L 102.833 96.865922 L 103.92492 96.750167 L 103.92492 95.698035 L 107.20017 95.351286 z M 98.466341 96.276294 L 98.466341 97.327909 L 99.558264 97.212671 L 99.558264 98.264286 L 100.64967 98.149048 L 100.64967 103.40816 L 99.558264 103.52391 L 99.558264 104.57553 L 98.466341 104.69128 L 98.466341 105.74342 L 95.191089 106.09017 L 95.191089 105.03803 L 94.099683 105.15379 L 94.099683 104.10166 L 93.00776 104.21741 L 93.00776 98.957784 L 94.099683 98.842546 L 94.099683 97.790413 L 95.191089 97.674658 L 95.191089 96.623043 L 98.466341 96.276294 z M 106.10825 96.519173 L 105.01685 96.634412 L 105.01685 97.686544 L 103.92492 97.801782 L 103.92492 103.06141 L 105.01685 102.94617 L 105.01685 103.99779 L 106.10825 103.88203 L 106.10825 102.83042 L 107.20017 102.71466 L 107.20017 97.455033 L 106.10825 97.570789 L 106.10825 96.519173 z M 97.374418 97.443665 L 96.283012 97.55942 L 96.283012 98.611035 L 95.191089 98.72679 L 95.191089 103.98642 L 96.283012 103.87066 L 96.283012 104.92279 L 97.374418 104.80704 L 97.374418 103.75491 L 98.466341 103.63967 L 98.466341 98.380042 L 97.374418 98.495797 L 97.374418 97.443665 z M 106.10825 99.674536 L 106.10825 100.72667 L 105.01685 100.84191 L 105.01685 99.790291 L 106.10825 99.674536 z M 97.374418 100.59954 L 97.374418 101.65116 L 96.283012 101.76691 L 96.283012 100.71478 L 97.374418 100.59954 z M 46.063338 101.82428 L 46.063338 110.23978 L 48.247184 110.00827 L 48.247184 111.0604 L 41.69668 111.7539 L 41.69668 110.70177 L 43.880009 110.47078 L 43.880009 105.21115 L 41.69668 105.44266 L 41.69668 104.39053 L 42.788603 104.27477 L 42.788603 103.22316 L 43.880009 103.1074 L 43.880009 102.05579 L 46.063338 101.82428 z M 36.238098 103.91665 L 35.146175 104.03241 L 35.146175 105.08403 L 34.054769 105.19978 L 34.054769 110.45941 L 35.146175 110.34365 L 35.146175 111.39527 L 36.238098 111.28003 L 36.238098 110.2279 L 37.329504 110.11266 L 37.329504 104.85303 L 36.238098 104.96827 L 36.238098 103.91665 z M 36.238098 107.07253 L 36.238098 108.12415 L 35.146175 108.2399 L 35.146175 107.18777 L 36.238098 107.07253 z " />
  </g>
</svg>
