<?xml version="1.0" encoding="UTF-8" standalone="no"?>
<!-- Created with Inkscape (http://www.inkscape.org/) -->

<svg
   width="235mm"
   height="297mm"
   viewBox="0 0 235 297"
   version="1.1"
   id="svg1"
   inkscape:version="1.4.2 (ebf0e940d0, 2025-05-08)"
   sodipodi:docname="QuanCha.svg"
   xmlns:inkscape="http://www.inkscape.org/namespaces/inkscape"
   xmlns:sodipodi="http://sodipodi.sourceforge.net/DTD/sodipodi-0.dtd"
   xmlns="http://www.w3.org/2000/svg"
   xmlns:svg="http://www.w3.org/2000/svg">
  <sodipodi:namedview
     id="namedview1"
     pagecolor="#505050"
     bordercolor="#ffffff"
     borderopacity="1"
     inkscape:showpageshadow="0"
     inkscape:pageopacity="0"
     inkscape:pagecheckerboard="1"
     inkscape:deskcolor="#505050"
     inkscape:document-units="mm"
     showguides="false"
     inkscape:zoom="0.7071068"
     inkscape:cx="796.90932"
     inkscape:cy="223.44574"
     inkscape:window-width="2226"
     inkscape:window-height="1224"
     inkscape:window-x="0"
     inkscape:window-y="0"
     inkscape:window-maximized="1"
     inkscape:current-layer="layer1" />
  <defs
     id="defs1">
    <rect
       x="123.56503"
       y="202.09748"
       width="513.4585"
       height="239.61386"
       id="rect1" />
  </defs>
  <rect
     style="fill:#d4d4d4;fill-opacity:1;stroke:#000000;stroke-width:2.69456;stroke-dasharray:none;stroke-opacity:0;paint-order:stroke fill markers"
     id="rect2-1"
     width="155.15813"
     height="213.50919"
     x="23.253979"
     y="49.255543"
     ry="12.577861" />
  <g
     inkscape:label="Layer 1"
     inkscape:groupmode="layer"
     id="layer1">
    <path
       id="rect2-1-6"
       style="fill:#d4d4d4;fill-opacity:1;stroke:#d4d4d4;stroke-width:1.58826;stroke-dasharray:none;stroke-opacity:1;paint-order:stroke fill markers"
       d="m 204.62274,91.720939 c -0.46984,-0.0017 -0.94712,0.04843 -1.42649,0.153549 L 131.0728,107.69068 c -3.83502,0.84099 -6.30429,4.89966 -5.53657,9.10069 l 20.75197,113.55647 c 0.76772,4.20102 4.4733,6.90595 8.30831,6.06496 l 72.12345,-15.8162 c 3.83502,-0.84099 6.30429,-4.89967 5.53657,-9.10068 L 211.50456,97.939441 c -0.67175,-3.675892 -3.59292,-6.206717 -6.88182,-6.218502 z m -9.90421,18.294151 c 2.18155,-0.042 4.09049,1.62028 4.49444,4.08888 l 12.47932,76.26009 c 0.46165,2.82126 -1.22277,5.59641 -3.77624,6.22177 l -44.0528,10.78865 c -2.55347,0.62536 -4.98079,-1.14229 -5.44246,-3.96354 L 145.94197,127.1503 c -0.46165,-2.82126 1.22227,-5.59587 3.77575,-6.22122 l 44.0528,-10.78866 c 0.31918,-0.0782 0.63637,-0.11934 0.94801,-0.12533 z" />
    <rect
       style="fill:#d4d4d4;fill-opacity:1;stroke:#000000;stroke-width:1.40936;stroke-dasharray:none;stroke-opacity:0;paint-order:stroke fill markers"
       id="rect2-3"
       width="147.95827"
       height="61.253075"
       x="26.262686"
       y="50.706696"
       ry="4.9029608"
       rx="0" />
    <path
       id="rect2-8"
       style="fill:#ebebeb;fill-opacity:1;stroke:#000000;stroke-width:1.56448;stroke-dasharray:none;stroke-opacity:0;paint-order:stroke fill markers"
       d="m 204.55736,90.489275 c -0.45592,-0.0016 -0.91873,0.04666 -1.3839,0.148665 l -72.52811,15.90518 c -3.72132,0.81606 -6.11759,4.75456 -5.37263,8.83102 l 20.1368,110.18978 c 0.74496,4.07647 4.34082,6.70142 8.06215,5.88536 l 72.52762,-15.90518 c 3.72132,-0.81606 6.11757,-4.75456 5.37261,-8.83102 L 211.23511,96.523306 c -0.65184,-3.566906 -3.48636,-6.022588 -6.67775,-6.034031 z m -3.62765,22.910975 c 2.18155,-0.042 4.09049,1.61973 4.49444,4.08832 l 12.47882,76.26065 c 0.46166,2.82125 -1.22227,5.59586 -3.77575,6.22122 l -44.05328,10.78865 c -2.55348,0.62536 -4.9808,-1.14229 -5.44246,-3.96354 L 152.15266,130.5349 c -0.46166,-2.82125 1.22227,-5.59585 3.77574,-6.22121 l 44.05329,-10.78866 c 0.31918,-0.0782 0.63638,-0.11878 0.94802,-0.12478 z" />
    <rect
       style="fill:#ebebeb;fill-opacity:1;stroke:#000000;stroke-width:2.65423;stroke-dasharray:none;stroke-opacity:0;paint-order:stroke fill markers"
       id="rect2"
       width="155.14743"
       height="207.17923"
       x="23.246302"
       y="47.276028"
       ry="12.204962" />
    <rect
       style="fill:#d4d4d4;fill-opacity:1;stroke:none;stroke-width:2.42141;stroke-dasharray:none;stroke-opacity:1;paint-order:stroke fill markers"
       id="rect3"
       width="139.57353"
       height="61.817463"
       x="32.065136"
       y="53.175526"
       ry="7.7618337" />
    <path
       id="rect3-1"
       style="fill:#5768b8;fill-opacity:1;stroke:#000000;stroke-width:2.38367;stroke-dasharray:none;stroke-opacity:0;paint-order:stroke fill markers"
       d="m 39.680782,55.964543 c -3.826881,0 -6.969362,2.825297 -7.464661,6.512264 l -0.06821,5.266347 v 37.658166 l 0.324011,5.22553 c 0.937124,3.09303 3.801862,5.33197 7.208862,5.33197 H 163.98327 c 4.17323,0 7.53288,-3.35964 7.53288,-7.53287 V 63.497416 c 0,-4.173231 -3.35965,-7.532873 -7.53288,-7.532873 z"
       sodipodi:nodetypes="sccccssssss" />
  </g>
</svg>
